<svg id="图层_1" data-name="图层 1" xmlns="http://www.w3.org/2000/svg" viewBox="0 0 552 293.92"><defs><style>.cls-1{fill:#fddb00;}</style></defs><title>OFOlogo</title><path class="cls-1" d="M134.07,309A104.07,104.07,0,1,0,238.14,413,104.07,104.07,0,0,0,134.07,309Zm0,185.59A81.52,81.52,0,1,1,215.59,413,81.52,81.52,0,0,1,134.07,494.54Z" transform="translate(-30 -223.17)"/><path class="cls-1" d="M477.93,309A104.07,104.07,0,1,0,582,413,104.07,104.07,0,0,0,477.93,309Zm0,185.59A81.52,81.52,0,1,1,559.45,413,81.52,81.52,0,0,1,477.93,494.54Z" transform="translate(-30 -223.17)"/><path class="cls-1" d="M333.26,245.68H376.6V223.17H333.85a63.54,63.54,0,0,0-63.54,63.54V517.09h22.52V338.83H376.6V316.31H292.84v-30.2A40.43,40.43,0,0,1,333.26,245.68Z" transform="translate(-30 -223.17)"/></svg>